<?xml version="1.0" encoding="UTF-8"?>
<svg xmlns="http://www.w3.org/2000/svg" version="1.1" xmlns:inkscape="http://www.inkscape.org/namespaces/inkscape" xmlns:sodipodi="http://sodipodi.sourceforge.net/DTD/sodipodi-0.dtd" xmlns:svg="http://www.w3.org/2000/svg" viewBox="0 0 308.8 304.9">
  <defs>
    <style>
      .cls-1 {
        fill: #fff;
      }

      .cls-2 {
        fill: #207820;
      }

      .cls-3 {
        fill: #ff7820;
      }
    </style>
  </defs>
  <!-- Generator: Adobe Illustrator 28.6.0, SVG Export Plug-In . SVG Version: 1.2.0 Build 709)  -->
  <g>
    <g id="svg23">
      <sodipodi:namedview id="namedview25" bordercolor="#000000" borderopacity="0.25" inkscape:deskcolor="#d1d1d1" inkscape:pagecheckerboard="0" inkscape:pageopacity="0.0" inkscape:showpageshadow="2" pagecolor="#ffffff"/>
      <g>
        <path class="cls-3" d="M69,96.7c-1.1,0-2.1.2-2.1.2,0,0,0,.2,0,.3.8-.2,1.4-.3,2.1-.4Z"/>
        <path class="cls-3" d="M70.8,93.3c-.2,0-.4,0-.6,0,0,0,0,.1.1.2.2,0,.3-.2.5-.3Z"/>
        <path class="cls-3" d="M66.9,97.1c.2,1,1.2,1.9.2,3-1.2.1-3.7.2-5,.2-1.3.6,0,1.1,0,1.6-.7,0-1.4,0-1.9,0-.6,0-1.1,0-1.1.2-.2.2-.3.3-.2.5,0,.1.1.3.6.4.2,0,.4.1.7.2.2,0,.4,0,.7.1.5,0,1.1.1,1.8.2,1.4-.8,3.3-1.5,5-2.2.9-.3,1.7-.7,2.5-1,.8-.3,1.4-.6,1.9-.9,1-.6,1.5-1.1.8-1.4-.7-.4-2.5-.6-6-.9Z"/>
        <path class="cls-3" d="M76,94c-2,.3-4,.5-6,.7-.6.7-1.4,1.4-.7,1.9,1.6-.4,2.8-.8,3.9-1.2,1.1-.4,2-.9,2.8-1.5Z"/>
        <path class="cls-3" d="M250.1,284.7c.2,0,.3,0,.5,1-.2-.4-.4-.7-.5-1-.1,0-.3.2-.6-.2,2.1,3.4,4.5,7.4,7,11.2.6.3,1.1.7,1.7.9-6.3-9.3-10.8-19.4-15.3-27.5,2.3,6.1,4.5,10,7.3,15.5Z"/>
        <path class="cls-3" d="M260,296.4c.2.3.4.6.7.9-.4-1-.5-1-.7-.9Z"/>
        <path class="cls-3" d="M256,109.3c.7-6.3.1-12-.7-17.5.7,11.7-1,23.9-2.3,33,1.2-5.1,2.2-10.3,3-15.6Z"/>
        <path class="cls-3" d="M248.7,66.2c.7,3.5,1.3,6.7,2,9.7.7,3.1,1.3,6,2,8.9-.3-3-.7-5.9-1.2-8.8-.5-2.9-1.2-5.7-1.9-8.4-.3-.5-.5-1-.8-1.4Z"/>
        <path class="cls-3" d="M252,73.6c1.1,6.6,2.3,12.4,3.2,18.3-.3-6.6-1.5-12.9-3.2-18.3Z"/>
        <path class="cls-3" d="M251.2,217.7c.9,4.5,1.5,7.2,1.7,8.7.4.7,1,1.5,1.7,2.7,0-.3,0-.5,0-.8-.3-1.1-.5-2.3-.7-3.4-.2-1.1-.4-2.3-.6-3.5-.1-1.2-.3-2.3-.4-3.5l-.2-1.8v-1.8c-.4-1.9-.8-3.8-1.2-5.4-.2,1.5-.2,2.9-.2,4.4,0,1.5-.1,2.9,0,4.4Z"/>
        <path class="cls-3" d="M252.9,226.5c-1.8-2.8-1.6-1.3-1.1.2.6,1.5,1.5,2.8,1.1-.2Z"/>
        <path class="cls-3" d="M236.6,195.2c0-.3,0-.5.1-.8,0-.7.1-1.5.2-2.3,0,1-.2,2-.3,3Z"/>
        <path class="cls-3" d="M262.4,138.3c-1.3,4.3-2.6,8.7-4,12.9,3.2-8.6,5.6-17.6,6.6-25.2-.3,1.1-.8,2.1-1.1,3.2,0,2.3-.5,5.8-1.5,9.1Z"/>
        <path class="cls-3" d="M238.6,230c-.9-6-1.6-11.9-1.9-17.9v-2.2c-.1,0-.2-2.2-.2-2.2,0-1.5,0-3,0-4.4,0-1.5,0-3,.1-4.4v-2.2s.2-2.2.2-2.2c1.6-11.7,4.4-23.1,8-33.7.9-2.7,1.9-5.3,2.8-7.9.4-1.3.9-2.5,1.3-3.7.4-1.2.8-2.5,1.2-3.7,1.5-5,2.7-9.9,3.5-14.8,1.4-8.5,3.4-20.1,3.5-31.7,0-5.8-.4-11.5-1.4-16.7-1-5.2-2.5-9.8-4.4-13.4.1.8.2,1.7.4,2.4.1.8.3,1.6.4,2.4-.4-1.1-.8-2.2-1.2-3.2-.4-1-.9-2-1.4-2.9-1.7-6.1-4.1-11.7-7.1-16.6-3-4.8-6.7-8.8-10.7-11.4-4-2.6-8.3-4-13.1-4.1-4.8-.1-10,1-15.4,3.3-3.2,1.4-5.2,3.4-8.3,5.3-3.1,2-6.2,4.3-9.1,6.8,0,0,.1,0,.2,0l-2.2,2-2.7,2.3-5.5,4.7c-3.6,3.3-7.6,6.1-11.5,9.1l-2.9,2.2c-1,.7-2,1.4-3,2.1-2,1.4-4.1,2.8-6.2,4.2-2,1.5-4.2,2.7-6.4,4.1-2.2,1.3-4.3,2.7-6.5,4-2.1,1.1-4.3,2.2-6.5,3.3-2.2,1.1-4.3,2.2-6.6,3l-6.7,2.7c-1.1.5-2.3.9-3.4,1.3l-3.4,1.2c-3.4,1.2-3.8.2-6.2.7-2.4.4-4.7.7-6.9,1.1-2.2.3-4.4.5-6.5.8-2.2.3-4.4.5-6.8.8-1.2.1-2.4.3-3.6.4-1.3.1-2.6.3-3.9.4,0,0,0-.5-.1-.8-.8.2-1.6.3-2.3.4-.7,0-1.4.1-2,.2.6-.5,1.3-.9,2.1-1.3.8-.4,1.6-.9,2.4-1.3,1.6-.8,3.2-1.5,4.2-2.2,1-.7,1.4-1.2.7-1.5-.3-.2-1-.3-1.9-.3-1,0-2.3-.1-4-.1h0c.7-.2,1.4-.4,2-.6,0,0,.1,0,.2,0,0,0,0,0,0,0,1.5-.4,2.7-1,3.7-1.5,1-.5,1.9-1,2.7-1.7-2,.4-3.9.8-5.9,1.1.3-.4.5-.8.2-1.2.2,0,.3-.2.5-.3.9-.2,1.6-.3,1.6-.3.2-.3.4-.5.5-.7,1.2-.5,2.6-1.1,4-1.6,1.4-.5,2.7-1.1,3.8-1.6,2.3-1,3.7-1.8,2.8-2.2-.6-.1-1.8.1-3.4.6-1.5.5-3.4,1.2-5.4,1.7-.3,0-.6,0-.9,0,5.3-1.4-.4-1.8,2.8-2.8,2.1-.5,4.2-1.1,6.3-1.7,2.1-.6,4.1-1.4,6.2-2,1.1-.3,2.1-.6,3.1-1,1-.4,2-.7,3-1.1,2-.8,4-1.4,5.9-2.2,1.9-.8,3.8-1.6,5.7-2.5.9-.4,1.9-.8,2.8-1.2l2.7-1.4c1.8-.9,3.6-1.9,5.4-2.8.9-.4,1.8-1,2.7-1.5.9-.5,1.8-1.1,2.6-1.6,1.8-1.1,3.5-2.1,5.3-3.2,1.8-1.2,3.5-2.4,5.3-3.7.6-.4,1.3-.9,1.9-1.3.9-.6,1.7-1.2,2.6-1.8.9-.6,1.7-1.2,2.5-1.9,1.6-1.2,3.3-2.5,4.9-3.7l2.5-1.8,1.2-.9,1.2-1c1.6-1.3,3.2-2.5,4.8-3.8-.3.5-.6,1-.9,1.4l3.9-3.1,1.9-1.6,2-1.7c2.7-2.3,5.4-4.5,8.2-6.7,6.8-5.4,14.5-10.1,23.5-13,4.5-1.4,9.3-2.3,14.3-2.4,2.5,0,5.1.2,7.6.5,2.5.5,5.1,1,7.6,1.9,2.6.9,5.1,2.1,7.4,3.4,1.2.6,2.3,1.4,3.4,2.2,1.1.8,2.2,1.6,3.2,2.4,2.1,1.7,4,3.5,5.8,5.4,1.7,2,3.4,4,4.9,6.1,3,4.2,5.5,8.7,7.6,13.4,2.1,4.7,3.8,9.5,5.2,14.5-2.5-8.1-5.8-15.9-10.3-23.5-2-3.5-4.2-6.8-6.8-9.7,2.6,3.2,4.8,6.4,6.8,9.7,3.8,6.7,6.3,13.8,8.3,20.6,1,3.4,1.8,6.7,2.7,9.9.8,3.2,1.6,6.2,2.5,8.9-.1,1.2-.4,1.3-.3,2.5.5,8.4-.1,16.6.2,23.8.3,0-.2,3.6.5,2.5-.6,7.1-2.2,15.3-3.5,22.3-.6,3-1,6.1-1.3,9.2-1.6,6.2-3.5,12.3-5.7,18.3l-.4,1.1-.3,1-.6,1.9c-.4,1.3-.9,2.6-1.3,3.9-.4,1.3-.7,2.6-1.1,3.9-.3,1.3-.8,2.6-1.1,4-.6,2.7-1.3,5.3-1.7,8-.2,1.3-.5,2.7-.7,4.1-.2,1.4-.4,2.7-.5,4.1l-.3,2.1-.2,2.1c-.1,1.4-.2,2.8-.4,4.2,0,2.8-.3,5.6-.2,8.4,0,2.8,0,5.8,0,8.9,0,1.5.1,3,.2,4.5,0,1.5.2,3,.3,4.4-1.6-8.3-2.2-17-1.8-26,1.2-8.6,3.1-16.6,3.9-23.6.1-.8.2-1.6.3-2.4l.5-2.4c-2.6,9.5-4.2,19-4.7,28.4-.3,2.5-.7,5.1-.9,7.7,0,1.3-.2,2.6-.3,3.9,0,1.3,0,2.6,0,3.9,0-.1,0-.2,0-.3-.1-2-.3-4.1-.3-6.1,0-1,0-2.1,0-3.1,0-1,0-2.1,0-3.1,1-7.7,2.4-15,3.1-21.5,0-.8.2-1.6.2-2.4.2-1.6.5-3.3.7-4.9-.7,3-1.5,5.9-1.9,8.9-.3,1.5-.6,3-.8,4.4-.2,1.5-.4,3-.6,4.4-.1.9-.2,1.8-.3,2.8l-.2,2.8c-.2,1.8-.2,3.7-.3,5.5-.3,2.3-.5,4.6-.7,6.9,0-.2-.1-.5-.2-.7,0-1-.9-3-1.7-4.4-.8-1.4-1.7-2.2-2.3-.6-.2,2-.2,4.1-.3,6.2,0,2.1,0,4.3,0,6.5.1,2.2.2,4.3.4,6.4.2,2.1.4,4.1.7,6,.3,1.9.5,3.6.8,5.2.3,1.6.6,3,.8,4.1.5,2.3.8,3.7.7,3.7-.2.3-.8-1.1-1.5-3.5-.3-1.2-.7-2.6-1-4.1-.4-1.5-.6-3.1-1-4.8-1.2-6.6-1.7-13.2-1.8-12.7,0,1.6-.1,3.1-.2,4.7-.3-1.5-.5-2.9-.8-4.3-.3-3.2,0-7.4-.3-9.6-.2-.9-.3-1.9-.4-2.9,0-1,0-2,0-3,0-2,0-4.1.3-6.1.4-4.2,1-8.4,1.5-12.7.3-2.7.5-5.8.9-8.9.2-1.6.4-3.2.7-4.8.3-1.6.6-3.3.9-4.9-.5-.2.9-3.2,0-2.4,2.3-5.8,5.2-12.5,4.7-15.5v-.4c.3-.4.4-1,.5-1.7,1.9-4.8,3-9.1,3.7-13.2.7-4.2,1.1-8.3,1.4-12.9.5-3.1.9-6.3,1.4-9.6-.1,1.1-.4,2.4-.6,3.7-.2,1.3-.5,2.6-.5,3.7,0,.7-.1,1.4-.2,2.1-1.2,8.1-2.7,15.8-4.7,23.5,0,.7-.2,1.7-.3,2.7-.2.5-.4,1.1-.7,1.6,0,.2,0,.3.1.5-2,7.3-5.4,15.5-6.6,21.9-.7,3-1.5,6-2.3,9.1-.6,3.1-1.5,6.1-2.1,9.3-1.4,6.2-2.3,12.6-2.8,18.8,0-6.2.3-12.4,1-18.5-1,7.6-1.4,14.8-1.2,21.7,0,1.1-.1,2.1-.1,3.2v3.3s0,1.7,0,1.7v1.7c0-2.1.3-4.1.3-6.1.2,4.1.6,8.2,1.2,12.1,1.3,10.9,3.7,21.8,7.1,32.4,3.4,10.6,7.7,20.9,12.9,30.6-.5-.2-1-.5-1.6-.8-2.6-4.7-5-9.5-7.1-14.1-2.1-4.7-4.1-9.1-6.1-13.2,1.9,6,3.8,9.9,6.2,15.4-.1,0-.3.2-.6-.2,1.8,3.4,3.9,7.4,6.1,11.2-1.3-.9-2.6-2-3.9-3.1-1.5-1.8-2.9-4.8-4.4-7.8-3.1-6.6-5.4-13.3-7.3-20.1-1.9-6.8-3.4-13.7-4.6-20.8-1.5-12.8-1.3-25.7.4-38.2-.2,1.6-.2,3.1-.3,4.6,0,1.5-.2,3-.1,4.5,0,3,0,6,.2,8.9.3,5.8,1.1,11.4,2.1,16.8ZM101.4,89.9c1.1-.5,2.2-.9,3.4-1.4-.2,0-.4,0-.6,0-1.1.3-2,.9-2.8,1.4ZM126.6,80.4c-.9.4-1.9.8-2.8,1.2-1,.4-2,.8-3,1.2-2.1.9-4.2,1.8-6.4,2.8-4.5,1.8-9.2,3.9-14.1,5.4,0,0,0,.2,0,.2,1-.3,2.1-.6,3.2-.9.5-.2,1.1-.3,1.6-.5.5-.2,1.1-.4,1.6-.6,2.2-.8,4.4-1.7,6.7-2.6,2.3-.9,4.5-2.1,6.7-3.1,1.1-.5,2.2-1.1,3.3-1.6,1.1-.5,2.2-1.1,3.2-1.7ZM157.2,69.7c0,0-.1,0-.2,0,0,0,0,0,0,0,0,0,0,0,.1-.1ZM254.7,55.6c-2.2-3.6-4.5-7.7-7.3-11.5-2.8-3.8-6.2-7.5-10.2-10.1-2.3-1.7-5.2-2.3-8.5-3.5-4.3-1.3-7.1-1.1-10.6-.9.9.2,1.7.5,2.6.7-3-.4-5.4,0-7.8.6-2.4.6-4.7,1.4-7.8,2.2,0,.3-.6,1-1.5,1.4-4.2,1.9-8.7,3.7-11.7,6.3-4,2.8-7.9,5.9-10.6,9-.3.3-.9,1-1.5,1.8-.6.8-1.4,1.8-2.2,2.6-2.1,1.9-4.3,3.8-6.5,5.6.1,0,.3,0,.4,0,1.8-1.5,3.6-3,5.3-4.6,1.3-1.2,2.6-2.5,4-3.8,1.2-1.1,2.4-2.3,3.6-3.5,2.4-2.2,4.8-4.3,7.2-6,11.9-8.4,24.2-13.1,35.8-10.2,2.5.6,5.1,1.3,7.4,2.6,3.7,1.8,7.2,5,10.1,8.4,3,3.4,5.3,7,7.4,9.4.7.8,1.5,2.7,2.4,3.5ZM269.6,64.2c-1-3-2.1-6.1-3.3-9.1-1.3-3-2.7-6.1-4.2-9-3.1-5.9-6.8-11.4-11-16-1.7-1.8-4.4-4.3-7.9-6.5-3.4-2.2-7.6-4-11.4-4.9-3.8-.9-7.3-1-9.4-.6-2.1.4-2.9,1.1-1.8,2,.7-.3,1.7-.6,2.8-.7.6,0,1.2-.1,1.9-.1.7,0,1.4,0,2.1.1,3,.3,6.5,1.2,10.1,2.9,3.6,1.7,7.2,4.2,10.4,7.3,3.2,3,6,6.5,8.3,10.2,4.6,7.2,7.3,14.6,9.2,19.5,1.8,4.9,3.1,7.3,4.2,4.9ZM261.6,160.9l.5-1.5.6-1.7c.4-1.2.8-2.3,1.2-3.5.4-1.2.8-2.4,1.2-3.6.4-1.2.9-2.5,1.3-3.8l-1.1,3.7-1.2,3.6c-.4,1.2-.9,2.4-1.3,3.6l-.7,1.8-.5,1.6ZM264.9,111.1c0,7.3-1.2,14.9-2.9,22.4-1.7,7.5-4,14.8-6.4,21.8-.9,2.7-1.8,5.2-2.9,7.8-1,2.6-1.9,5.2-2.8,7.8-.8,2.6-1.6,5.2-2.1,7.8-.2,1.3-.4,2.6-.6,3.8,0,.6-.2,1.3-.2,1.9,0,.6,0,1.2,0,1.9l.8.2v-1.1c.4-1.8,1-3.4,1.5-4.9.3-.8.5-1.5.8-2.2.3-.7.6-1.4.9-2.2,0,.2,0,.4,0,.5,0-.3.2-.6.2-.9.8-1.9,1.3-4,2-6.4.3-1.1.5-2.3.8-3.4.5-1.6,1.1-3.1,1.6-4.7l1.8-4.8c1.3-3.4,2.5-6.8,3.6-10.2,2.1-6.8,3.6-13.6,4.3-20.1,1-8,.9-14.9.8-22.8,0,1.1-.3,2.5-.5,3.9-.2,1.4-.4,2.8-.4,3.9Z"/>
        <path class="cls-3" d="M238.6,209.6c.1,2.4.2,4.8.4,7.2.1,1.2.2,2.4.3,3.6.1,1.2.2,2.4.4,3.6.6,3.7,1.3,7.3,2.2,10.9,1.9,8.5,4.2,17.7,7.4,26.7,3.2,9,7.2,18,12,25.8,1,0,1.7-.3,2.1-1.3-2.2-4.4-4.4-8.8-6.4-13.4-2-4.5-3.8-9.1-5.4-13.8-3.2-9.4-5.6-19.1-6.4-29v-.5c-.3-.5-.5-1.1-.6-1.6-.1-.6-.2-1.1-.4-1.7-.2-1.2-.4-2.5-.6-3.8-.1-1.3-.3-2.7-.4-4.1-.1-1.4-.2-2.9-.2-4.3,0-1.5-.1-3,0-4.4,0-1.5,0-3,0-4.5,0-1.5,0-2.9.1-4.4,0-1.4,0-2.8,0-4.2-.2-10.9,2-21.7,4.5-32.6-2.8,7.5-4.7,15.1-6.2,22.7-1.4,7.6-2.4,15.3-2.9,23.1Z"/>
        <path class="cls-3" d="M252.6,84.7c.4,3.9.5,7.8.5,11.9,0,11.2-1,21.4-2.9,31.8,1-3.7,1.8-7.5,2.5-11.3.7-3.8,1.3-7.6,1.8-11.4.3-3.9.2-7.4-.2-10.9-.4-3.4-1-6.7-1.7-10Z"/>
        <path class="cls-3" d="M248.5,136.8c.3-1.4.6-2.8.9-4.2.3-1.4.6-2.8.8-4.2-1.4,5.5-3.2,11-5.1,16.4-.5,1.3-1,2.7-1.5,4l-1.6,4.2c-1.1,3-2.3,5.9-3.2,8.9-3,9.9-5.1,20.1-6,30.4-1,10.3-.9,20.6.3,30.7.3,2.3.6,4.6.9,6.8-1.7-18.8.3-37.8,4.9-55.3.6-2.2,1.2-4.4,1.8-6.5.7-2.1,1.4-4.3,2-6.4l.5-1.6.6-1.6c.4-1,.8-2.1,1.1-3.1.7-2,1.4-4,2.2-6,2.7-7.7,4.6-15.3,5.7-22.7,0-.5.2-1.1.2-1.7-1.6,6.9-3.7,13.6-6.1,20.3-.6,1.7-1.2,3.3-1.9,4.9l-2,5.2-1,2.7-.5,1.3-.4,1.4-1.8,5.4c.8-2.6,1.5-5.1,2.3-7.7l2.6-7.6c1.7-4.6,3.1-9.3,4.3-14.1Z"/>
        <path class="cls-3" d="M238.5,205c0,1.1-.1,2.1-.2,3.2,0,.6,0,1.2,0,1.8,0,.6,0,1.2.1,1.8,0-.7,0-1.5.1-2.2,0-1.6,0-3.1,0-4.6Z"/>
        <path class="cls-3" d="M250.8,176c0-.1,0-.2.1-.4.4-1.6.8-3.3,1.3-4.9.5-1.6,1-3.3,1.5-4.9.1-.6.3-1.2.4-1.7.2-.6.3-1.2.5-1.7.4-1.2.7-2.3,1.1-3.5.2-.6.4-1.2.6-1.8.2-.6.4-1.3.6-1.9.4-1.3.9-2.6,1.3-3.9-.4,1.2-.9,2.3-1.3,3.5-.4,1.2-.9,2.3-1.3,3.3-.8,2.1-1.5,4.2-2.2,6.3-.6,2.1-1.2,4.1-1.7,6-.5,1.9-.8,3.8-1.1,5.6Z"/>
        <path class="cls-3" d="M267.6,150c.4-1.1,1.2-3.4,1.6-4.5,0-.7.2-1.5.2-2.2-.4,1.1-.7,2.1-1.1,3.2l-.7,3.5Z"/>
        <path class="cls-3" d="M274.1,80.2c1.4,10.6,1.4,20.9.6,30.9-.8,10-2.6,19.8-5,29.3-.1,1-.2,1.9-.3,2.9,4.4-12.4,6.9-25.6,6.6-37.9,0-2.4-.6-6.1-.5-8.4.2-11.3-1.4-22.2-4.6-32.7,1.4,5,2.4,10.2,3.1,15.5,0,.1,0,.3,0,.4Z"/>
      </g>
      <g>
        <path class="cls-2" d="M62.9,274.6c.5.9,1,1.8,1,1.8,0,0,.1-.1.2-.2-.5-.6-.9-1.2-1.3-1.7Z"/>
        <path class="cls-2" d="M59.2,274.3c.1.2.2.4.3.6,0-.1,0-.1.1-.2-.1-.1-.3-.2-.4-.4Z"/>
        <path class="cls-2" d="M64.2,276.2c.7-.6,1.2-1.8,2.5-1.4.6,1,1.7,3,2.3,3.9,1,.7.9-.6,1.3-.8.6,1,1.2,1.9,1.3,1.6,1,.2.8-.8-.2-2.8-2.5-1.3-5.5-4.6-7.3-6-1.7-1.5-2.4-.9,0,5.5Z"/>
        <path class="cls-2" d="M57.9,269c.9,1.8,1.9,3.7,2.9,5.5.8.3,1.8.7,2,0-1.9-2.6-3.3-4.1-4.9-5.4Z"/>
        <path class="cls-2" d="M190.5,88.7c-.1-.1,0-.3.9-.8-.3.3-.6.5-.9.8,0,.1.3.2,0,.7,1.3-1.5,3.1-2.9,4.8-4.4.9-.7,1.7-1.5,2.7-2.2,1-.7,1.9-1.4,2.9-2,.3-.6.7-1.1,1-1.7-2.4,1.7-4.9,3.2-7,5.1-1.1.9-2.2,1.8-3.3,2.7-1.1.9-2,1.9-3,2.9-.5.5-1,1-1.5,1.4-.5.5-1,.9-1.4,1.5-.9,1-1.7,2-2.5,3-.4.5-.8,1-1.2,1.5-.3.5-.7,1.1-1,1.6-.6,1-1.3,2.1-1.8,3.1,1-1.3,1.9-2.5,2.8-3.6.4-.6.9-1.1,1.3-1.6.5-.5.9-1,1.3-1.6.4-.5.9-1,1.3-1.6l.7-.8c.2-.3.5-.5.7-.7,1-1,2.1-2,3.3-3.1Z"/>
        <path class="cls-2" d="M201.7,77.2c.3-.2.7-.5,1-.7-1,.4-1.1.5-1,.7Z"/>
        <path class="cls-2" d="M190.1,273.2c-1.9,4.1-4.3,7.7-7.1,11-2.8,3.2-6.1,5.9-9.6,8.1,3.9-2.1,7.5-4.8,10.6-8.1,3.1-3.3,5.5-7,7.2-10.8,1.7-3.8,2.7-7.6,3.3-11.1.2-1.8.5-3.5.5-5.1,0-.8,0-1.6,0-2.4,0-.8,0-1.5,0-2.3,0,3.4-.5,6.9-1.2,10.4-.8,3.5-2,7-3.6,10.3Z"/>
        <path class="cls-2" d="M135.1,299.7c5.3,1.2,10.3,1.5,15.1,1.3,4.8-.3,9.3-1.2,13.6-2.7-8.9,2.4-17.8,2.5-26.2,1.5-.8,0-1.7,0-2.5,0Z"/>
        <path class="cls-2" d="M147.2,299.3c9.9.2,18.6-2.3,26.2-7-4.4,2.4-8.9,4-13.4,5-4.4,1.1-8.7,1.7-12.8,2Z"/>
        <path class="cls-2" d="M149.4,153c-.7-3-1.1-5.5-1.3-7.5-.3-2-.4-3.5-.4-4.6-.3-1-.8-2.3-1.3-4.1,0,.4,0,.8,0,1.1,0,1.7.2,3.3.3,5,.1,1.7.3,3.3.5,4.9.1,1.7.4,3.3.7,4.9.3,1.6.5,3.3.9,4.8.7,2.6,1.4,5,2.3,7-.4-1.9-.6-3.8-.9-5.8l-.4-2.9c0-1-.2-2-.3-2.9Z"/>
        <path class="cls-2" d="M147.7,140.9c1.5,4.1,1.4,2,1.1,0-.4-2.1-1.1-4.2-1.1,0Z"/>
        <path class="cls-2" d="M169.3,175.4c0,.3.1.5.2.8.3.7.6,1.5.9,2.3-.4-1-.7-2-1.1-3.1Z"/>
        <path class="cls-2" d="M182.3,241.3l-.5-3.4-.7-3.2c-.3-1.1-.6-2.2-.9-3.2-.3-1.1-.7-2.2-1.1-3.2.3,1.1.7,2.2,1.1,3.3.3,1.1.6,2.2.9,3.3.2,1.1.5,2.2.7,3.2.2,1.1.4,2.2.6,3.3.7,4.4,1.1,8.6,1.2,12.4,0-1.1.4-2.3.4-3.4-.2-1.1-.6-2.6-.8-4.1-.3-1.6-.5-3.3-.8-5Z"/>
        <path class="cls-2" d="M161.7,138.5c0,6.6,1,13.2,2.4,19.5,1.4,6.3,3.3,12.4,5.4,18.2,3.5,12.2,8.2,23.8,12.8,35.1,2.3,5.7,4.6,11.2,6.5,17,.5,1.4.9,2.9,1.4,4.3.4,1.5.8,3,1.1,4.5.3,1.5.6,2.9.9,4.4.2,1.5.5,3,.7,4.4.8,5.2,1,11.6-.6,18.7-.8,3.5-2,7.2-4,10.7-1.9,3.5-4.5,6.9-7.6,9.7-3.1,2.8-6.6,5.1-10.1,6.9-3.6,1.8-7.3,3-10.9,4-3.6.9-7.1,1.5-10.4,1.9-3.3.4-6.4.7-9.3.8,1.2.2,2.4.4,3.6.5,1.2.1,2.3.2,3.5.2-3.4.3-6.6.4-9.6.4-1.2-.1-2.4-.3-3.5-.5-1.2-.2-2.3-.4-3.5-.7-1.2-.2-2.3-.6-3.5-.9-.6-.2-1.3-.4-2-.6-.7-.2-1.3-.4-2-.7-2.7-1-5.5-2.4-8.3-4.4-2.9-2.1-5.3-4.7-7.3-7.7-1-1.5-1.8-3.1-2.5-4.7-.3-.8-.6-1.6-.9-2.4-.3-.8-.5-1.5-.7-2.3-.8-3-1.2-5.9-1.3-8.5,0-.7,0-1.3,0-1.9v-1.9c0-1.2,0-2.5,0-3.6,0-1.2.1-2.3.2-3.4,0-1.1.2-2.2.3-3.3.9-8.7,2.3-16.5,3.3-24.2.5-3.9,1-7.7,1.3-11.5.2-1.9.3-3.8.5-5.7,0-1.1,0-1.7.1-2.4v-1s0-.9,0-.9c0-.4,0-.6-.1-1,0-.3-.1-.5-.2-.8,0-.2-.2-.4-.3-.6-.1,0-.2-.3-.2-.3-.3-.2-.6-.4-.8-.6-.2-.2-.5-.4-.8-.4-.1,0-1.2-.3-2.4-.3,0,0,0,.1,0,.2-2.6-.1-6.3.4-10,1.5-3.7,1.1-7.6,2.6-11.4,4.5-3.8,1.9-7.5,4.1-11,6.6-3.5,2.5-6.8,5.2-9.3,8l-.9.9-.4.5s0,0,0,.1h0s0,.1,0,.1c0,.1-.1.2-.2.3,0,.1-.1.2-.2.4,0,0,0,.1-.1.2,0,0,0,.2,0,.2,0,.2-.1.3-.2.4,0,.2-.1.4-.2.6,0,0,0,.2-.1.3v.4c0,0-.3.7-.3.7,0,.3,0,.6-.1.9,0,.1,0,.3,0,.4v.5s-.1,1-.1,1c0,1.5,0,3,.3,4.8.1,1.3,0,2-.1,2.7-.2.6-.4,1.2-.3,2.1.2,4,.8,7.7,1.8,11.5.9,3.9,2.2,7.9,4.3,12.5,0,0-.5.2-.7.3.8,1.4,1.4,2.6,1.9,3.7-2.5-1.5-5.3-5-7-6.5-.8-.8-1.4-1.1-1.5-.3-.1.7.2,2.5,1.2,5.8h0c-.4-.6-.8-1.2-1.2-1.8,0,0,0-.1,0-.2,0,0,0,0,0,0-1.8-2.7-3-4.3-4.6-5.8.8,1.9,1.7,3.8,2.6,5.7-.5-.2-.9-.3-1.2,0-.1-.1-.3-.3-.4-.4-.4-.9-.7-1.6-.7-1.6-.3-.2-.6-.3-.8-.4-1.6-2.3-3.4-5.4-4.7-7.8-1.3-2.4-2.3-4-2.5-3-.1,1.4,1.7,5.2,3.8,9.4,0,.3,0,.6.1,1-2.6-5.6-1.7.7-3.4-2.6-1.8-4.6-3.7-9.3-4.9-14.3-1.2-5-2-10-2-15.1,0-5,.9-10.2,3.3-15,.3-.6.7-1.1,1-1.7.3-.6.7-1.2,1.1-1.7l1.2-1.6c.4-.5.8-.9,1.2-1.4,1.7-1.8,3.4-3.4,5.3-5,3.7-3.2,7.6-6.1,11.9-8.9.8-.5,1.5-1,2.3-1.4,4.2-2.6,8.5-4.7,13-6.5,4.5-1.8,9.1-3.2,14.1-4-.6.3-1.2.6-1.8.9,3.9-.8,7.9-1.3,12.1-1.2,2.1,0,4.2.2,6.4.7,2.2.4,4.5,1.2,6.6,2.3,2.6,1.3,4.9,3.2,6.7,5.6.9,1.2,1.7,2.4,2.3,3.8.6,1.3,1.2,2.8,1.5,4.1.8,2.7,1.1,5.4,1.2,8,0,.7,0,1.3,0,2,0,.7,0,1.3,0,1.9,0,1.2,0,2.4-.1,3.6-.4,9.5-1.5,19.2-2.9,28.8-.7,5-1.4,10-1.7,14.6-.3,4.6-.1,9.1,1,12.2.2.3.3.7.4,1.1.2.3.3.6.5.9.4.6.8,1.1,1.3,1.6.3.2.5.5.8.7.3.2.5.4.9.6.6.4,1.4.7,2.2,1.1l1.3.5,1.4.4c.4.1,1.1.3,1.6.4.5.1,1.1.3,1.7.3,2.2.5,4.5.7,6.7.9-1.9,0-3.7-.3-5.6-.5-.9-.2-1.9-.3-2.8-.5l-1.4-.3-1.2-.3-.6-.2-.5-.2c-.4-.1-.7-.2-1.1-.4l-1-.4c-.4-.1-.6-.3-.9-.5-1.1-.7-2-1.4-2.8-2.5-.6-.9-1-2-1.4-3.2-.4-1.2-.6-2.7-.7-4.3,0,1.6.2,3.1.6,4.3.4,1.3.8,2.3,1.4,3.2.6.9,1.3,1.7,2.2,2.4.2.2.5.3.7.5l.4.3.4.2.9.5,1,.4c.6.3,1.4.5,2,.7.7.2,1.6.4,2.3.7.8.2,1.6.4,2.4.5.8.1,1.6.3,2.4.4,6.4.9,12.5.3,16.9-1.7,1,0,1.1.3,2.1,0,3.4-.7,6.6-1.8,9.1-3.5,2.6-1.6,4.5-3.7,5.6-6.1,0,0,.2-.6.4-1.1.2-.5.3-.9-.1-.7,1.2-2.1,2.3-4.7,2.9-7.7.6-2.9.8-6.1.6-9.1,0-1.3-.3-2.6-.6-4-.4-1.3-.7-2.6-1.2-4l-.4-2.1c-.1-.7-.3-1.4-.4-2l-.5-1.9c-.2-.6-.4-1.3-.6-2-.8-2.6-1.9-5.5-3-8.3-2.3-5.7-4.9-11.7-7.5-17.8-5.3-12.3-10.8-25.5-14.6-40.8-1.8-7.6-3-16.8-3-25.3.5,6.2,1.3,12.3,2.7,18.1l.5,2.2.6,2.2c.4,1.4.7,2.9,1.1,4.3.8,2.8,1.6,5.7,2.6,8.5,2.7,11.1,6.4,21,10.5,28.5.9,1.8,1.8,3.5,2.7,5.3-2.3-5.4-4.7-10.9-6.9-16.5-2.3-5.6-4.4-11.3-6.3-17.2-1.6-6.5-3-13.4-3.9-20.4,0,.1,0,.3.1.4.3,1.3.6,2.7.9,4,.3,1.3.7,2.7,1,4,.6,2.7,1.4,5.2,2.2,7.9,2.3,9.9,5.3,18.9,8.9,26.1.4.9.9,1.8,1.4,2.6.9,1.8,1.8,3.5,2.7,5.3-2.9-6.7-5.7-13.6-8.3-20.6-.8-2.2-1.6-4.4-2.4-6.6-.7-2.2-1.5-4.5-2.2-6.8-.3-1.5-.6-2.9-.9-4.4-.3-1.5-.5-3-.8-4.5.1.3.3.6.4.9.2.6.6,1.5,1.1,2.5.5.9,1.2,1.8,1.8,2.5,1.3,1.4,2.4,2,2.3,0-1.2-4.8-2.2-10.2-3-15.7-.3-2.7-.7-5.5-.9-8.2,0-1.3-.2-2.7-.2-4,0-1.3,0-2.6,0-3.8,0-.6,0-1.2,0-1.8,0-.6,0-1.2,0-1.8,0-1.2.1-2.3.2-3.3,0-1,.2-2,.3-3,.1-.9.2-1.8.3-2.5.1-.8.2-1.5.3-2.1.1-.6.2-1.1.3-1.5.2-.8.3-1.3.3-1.3.2-.1.2.3.1,1.2,0,.4,0,1-.2,1.6,0,.6,0,1.4-.2,2.1,0,.8-.1,1.7-.2,2.6,0,.9-.2,1.9-.2,2.9,0,1,0,2,0,3.1,0,1.1,0,2.1,0,3.2,0,1.1,0,2.1.1,3.2,0,1,0,2.1.2,3,.2,1.9.4,3.7.6,5.3.5,3,.8,4.9.8,4.5,0-1.9-.2-3.8-.2-5.8.3,1.8.8,3.5,1.1,5.1.7,3.8,1.3,8.9,2.3,11.3,1.6,4.2,3,8.7,4.5,13.3,1.5,4.6,3.1,9.3,5.2,13.8,2.7,5.6,6.3,12.1,9.8,18.6.5-.2,1.5,3.4,1.6,2,1.2,3.2,2.4,6.7,3.6,9.7,1.2,3,2.3,5.5,3.5,6.8,0,.2.1.3.2.5.1.5.4,1.1.7,1.8.3,1.4.6,2.8.9,4.2.3,1.4.5,2.7.7,3.9.1.6.2,1.3.3,1.9,0,.6.2,1.2.3,1.9.2,1.2.4,2.4.5,3.7.6,4.9,1,9.8.2,15.5-.7,3.8-2.1,7.8-4.2,11.4,1.5-2.4,3.2-6.1,3.8-8.8.2-.9.3-1.8.4-2.6,1-5,1-9.9.6-14.5-.4-4.7-1.2-9.1-2.4-13.6-.1-.4-.3-.8-.5-1.3-.2-.5-.5-1-.7-1.5-.1-.6-.3-1.3-.4-1.9-.1-.1-.3-.3-.4-.4-3-8-6.6-16.8-9.8-23.3-5.5-12.4-10.1-26.2-12.8-39.8,1.9,6.6,4.2,13,6.7,19.2-3-7.8-5.5-15.2-7.4-22.6-.2-1.2-.5-2.3-.6-3.5-.4-2.4-.8-4.8-.9-7.3,0,1.1,0,2.3.2,3.4.1,1.1.2,2.3.4,3.4-.2-1.1-.5-2.2-.7-3.4-.3-1.1-.4-2.2-.6-3.4-.2-1.1-.4-2.2-.5-3.4-.1-1.1-.3-2.2-.4-3.4-.5-6.2-.4-12.6.6-18.9,1.1-6.3,3-12.5,5.8-18.4l2.2-4.3c.8-1.4,1.7-2.7,2.6-4.1.8-1.4,1.9-2.7,2.8-3.9l1.5-1.9.8-1c.3-.3.5-.6.8-.9l3.3-3.5.8-.9.9-.8,1.8-1.6,1.8-1.6c.6-.5,1.2-1.1,1.8-1.5l3.8-2.9c-.2.6-.5,1.2-.8,1.8-1.2,1-2.4,1.9-3.5,2.9-1.1,1-2.2,2.1-3.3,3.1-.5.5-1.1,1-1.6,1.5-.5.6-1,1.1-1.5,1.7-1,1.1-2,2.2-2.9,3.3-.9,1.1-1.7,2.3-2.6,3.5-.8,1.2-1.7,2.3-2.3,3.5-.7,1.2-1.3,2.4-1.9,3.5l-.4.9c-.1.3-.2.6-.4.9-.2.6-.5,1.2-.7,1.8.4-.8.8-1.5,1.2-2.2.4-.7.8-1.4,1.2-2,.8-1.3,1.6-2.6,2.3-3.8.9-1.2,1.7-2.4,2.6-3.6.5-.6.9-1.2,1.4-1.8.5-.6,1.1-1.2,1.6-1.8.1.1.3.2,0,.7,1.4-1.6,2.8-3.5,4.5-5.2,1.7-1.7,3.4-3.5,5.4-5-.4.8-.9,1.5-1.3,2.3-.4.8-.8,1.7-1.2,2.5-.7,1-1.7,2.1-2.9,3.3-1.1,1.3-2.2,2.6-3.4,4-5,5.9-9,12.3-11.9,19.2-2.8,6.9-4.4,14.2-4.7,21.7-1.2,13.4,1.1,27.1,4.7,40-2.2-6.3-3.9-12.5-5.2-18.6-1.3-6.1-2.2-12.2-2.4-18.3ZM49.9,244.3c-.4-1.1-.8-2.2-1.1-3.3,0,.2,0,.4,0,.6.3,1.1.7,2.1,1.2,2.8ZM50.4,221.3c-1.5,2.5-2.4,6.1-2.1,10.5,0,2.1.4,4.4.9,6.7.5,2.3,1.1,4.7,1.9,7,0,0,.2,0,.2,0-1-4-2-8.3-2.3-12.6-.2-2.1-.2-4.2,0-6.2,0-.5.2-1,.2-1.4v-.7c.2-.2.2-.4.3-.7.1-.4.2-.9.4-1.3.2-.4.3-.8.5-1.2ZM75.5,208c0,0-.1,0-.2,0,0,0,0,0,0,0,0,0,0,0,.1-.1ZM126.2,288.3c-2.7-.7-5.7-2-8.4-4.3-2.7-2.2-4.9-5.4-6.2-8.9-1.3-3.5-1.7-7-1.9-10.3-.2-3.4,0-6.6.2-9.8.4-3.8,0-7.7.7-12.5.7-6.1.7-9.7,1.1-14.5l-1,3.5c1.4-8.3.5-13.1,1.6-21.2-.2,0-.7-1.1-.7-2,0-1.1-.1-2.2-.2-3.2,0-.5-.1-.9-.2-1.4v-.6c-.2-.2-.2-.3-.3-.5-.2-.6-.4-1.1-.7-1.5-.3-.4-.7-.8-1.1-1-.5-.4-.9-.7-1.5-.9-.1,0-.3,0-.4-.2-.1,0-.3,0-.4-.1-.3,0-.5-.1-.9-.2-1.4-.3-3.3-.3-5,0-.9,0-2.6.9-4.4,1.5-2.3.5-4.6,1.1-7,1.9.1,0,.2,0,.4.1,1.9-.6,3.9-1.1,5.7-1.6,2.8-.8,5.7-1.3,8-1.3,1.2,0,2.2.2,2.8.3.6.1,1.2.4,1.7.7.6.4,1.2,1,1.5,1.7.2.3.3.7.5,1.1,0,.2.2.6.3.8l.2,1c.3,1.4.4,2.9.4,4.6,0,2,0,4.1-.2,6.2-.3,8.3-1.1,16.6-1.9,25.2-.3,3.7-.4,7.4-.6,11.3,0,2.9-.2,6-.2,9.2,0,3.2.3,6.6,1,10.1.4,1.7.9,3.4,1.7,5.1.3.8.8,1.6,1.2,2.4.5.8,1,1.4,1.5,2.1,2.1,2.6,4.7,4.3,6.8,5.2,1.4.7,4,2,5.5,2ZM141.9,280.5c-2.9,0-5.9-.4-8.8-1.1-.8-.1-1.4-.3-2.1-.5-.7-.2-1.3-.4-1.9-.6-.6-.2-1.1-.5-1.7-.7-.3-.1-.5-.3-.7-.4-.2-.1-.5-.3-.7-.4-.9-.6-1.7-1.4-2.3-2.2-.6-.9-1.1-1.8-1.5-2.9-.8-2.2-1-4.9-1-7.5,0-2.1,0-5.5.3-9.2.2-3.8.6-8,.8-11.8.4-7.7,0-13.6-1.8-11.4,1,3.2.6,9.8-.1,17.7-.4,3.9-.8,8.2-.9,12.4-.1,4.2.2,8.3,1.5,11.5.6,1.5,1.6,2.9,2.7,4,1.1,1.1,2.4,2,3.9,2.6.7.4,1.5.6,2.2.9.8.2,1.5.4,2.2.6.8.2,1.5.3,2.2.5.7.1,1.4.2,2,.3,5.1.7,7.6,0,5.9-1.7ZM170.4,222.7c2,4.5,3.8,8.8,4.8,13.6-1.2-4.3-2.9-8.9-4.8-13.6ZM182.5,268.9c2.5-7.3,2.8-15.2,2-23-.3-2-.5-3.9-.9-5.9-.3-2-.8-3.8-1.3-5.7-1.1-3.7-2.4-7.4-3.9-11-2.3-5.5-4.4-11.5-6.5-17.4-2.2-5.9-4.4-11.6-7-16.6l-.7.2.6,1.1c1.2,4.2,2,7.6,3.1,11.1,0-.2-.2-.4-.3-.6.1.3.3.7.4,1,.7,2.3,1.5,4.7,2.7,7.3.6,1.2,1.1,2.4,1.7,3.6,2.8,7,5.6,14.1,7.6,20.8.3.9.5,1.7.7,2.5.2.8.5,1.6.6,2.5.3,1.7.7,3.4,1,5.1.6,3.4.9,6.7,1.1,9.9,0,4-.1,7.6-.9,11.3-.8,3.6-2.1,7.2-4.5,10.5.7-.9,1.8-2,2.6-3.2.9-1.2,1.5-2.5,2-3.6Z"/>
        <path class="cls-2" d="M162.8,161c-.3-1.3-.6-2.6-.9-3.9-.3-1.3-.6-2.6-.7-3.9-.2-1.3-.4-2.7-.6-4-.2-1.3-.3-2.7-.4-4.1-.5-4.2-.6-8.4-.6-12.7.3-5,1-10.4,2.7-15.6.7-2.7,1.9-5.2,2.9-7.8.6-1.3,1.3-2.5,1.9-3.8.6-1.3,1.3-2.5,2.1-3.7,6-9.7,14.2-17.9,22.8-24.6,0-1-.3-1.7-1.5-1.9-10,6.8-18.8,15.9-25,26.8-3.1,5.5-5.4,11.3-7.1,17.3-1.6,6-2.5,12.2-3,18.3,0,.2,0,.4,0,.6.5,5.3,1.1,12,2.3,18.9,1.2,6.9,3,13.9,5.3,19.7,4.8,11.6,9.6,22.8,15.1,33.8-3-8.3-6.2-16.3-8.9-24.4-2.7-8.1-5.1-16.4-6.4-25.1Z"/>
        <path class="cls-2" d="M163.8,298.2c2.9-.8,5.8-1.8,8.7-3.2,1.4-.6,2.8-1.5,4.2-2.2,1.4-.9,2.7-1.7,4-2.8,3.6-2.8,6.7-6.2,9.1-9.8,2.4-3.6,4-7.5,5.1-11.3.6-1.9,1-3.8,1.3-5.6.2-.9.2-1.9.4-2.8.1-.9.2-1.8.3-2.7v-2.7c.2-.9.1-1.8,0-2.7,0-.9,0-1.8,0-2.6l-.2-2.6c.2,5,0,10.3-1.1,15.6-1.1,5.3-3.2,10.8-6.5,15.6-1.6,2.5-3.4,4.7-5.3,6.8-1.9,2-4,3.9-6.1,5.5-4.3,3.2-8.9,5.7-13.8,7.4Z"/>
        <path class="cls-2" d="M194.9,236.4c.8,3.6,1.5,7.1,1.8,10.8-.1-3.8-.6-7.4-1.2-11-.1-.9-.4-1.9-.5-2.8-.2-.9-.4-1.9-.6-2.7-.5-1.8-.9-3.5-1.5-5.2-2.1-6.8-4.6-13-7-19.2-4.3-10-8.5-19.8-11.9-29.7-1.7-5-3.3-10-4.5-15-.7-2.5-1.1-5.1-1.7-7.6l-.6-3.8c0-.6-.2-1.3-.3-1.9l-.2-1.9c-.1-1.2-.3-2.3-.3-3.5,0-1.2,0-2.3,0-3.5v3.6c0,1.2,0,2.4,0,3.6v1.8c0,.6.2,1.2.2,1.8l.3,3.6c.6,4.8,1.4,9.6,2.6,14.3,2.2,9.5,5.4,18.7,8.7,27.7,3.4,9,7.1,17.7,10.4,26.6,1.6,4.5,3.2,9,4.3,13.8,1,4.6,1.8,9.3,2.2,14,0,.7,0,1.5.1,2.2.1-2.3,0-4.5,0-6.8-.2-2.2-.3-4.4-.7-6.6-.2-1.1-.3-2.2-.5-3.2l-.7-3.3c-.2-1.1-.5-2.1-.8-3.2l-.4-1.6-.5-1.5c-2.5-8.2-5.6-15.7-8.6-23.1,2.2,5.2,4.5,10.4,6.6,15.8,2.1,5.4,4.2,11,5.5,17.4Z"/>
        <path class="cls-2" d="M164.1,166c-.2-1.2-.4-2.3-.6-3.5-.3-1.3-.7-2.6-1-4,0,.8.2,1.6.3,2.4.4,1.7.8,3.3,1.3,5Z"/>
        <path class="cls-2" d="M167.9,201.6c0,.1,0,.3.1.4,1.5,3.6,2.9,7.2,4.4,10.9,2.3,4.9,4.6,10.1,6.5,15.3-3.2-9.6-7.4-19.2-11.1-26.7Z"/>
        <path class="cls-2" d="M172.6,234.4c.1.5.3,1.2.5,2,.1.7.3,1.4.4,1.9l.4.8c.1.3.2.6.4.9,0-1-.3-1.8-.4-2.7-.3-.9-.8-1.9-1.2-2.8Z"/>
        <path class="cls-2" d="M156.2,278.4c2.1-.5,4.2-1.1,6-1.9,1.8-.8,3.6-1.7,5-2.9,1.4-1.1,2.8-2.3,3.8-3.7,1.1-1.4,2-2.8,2.6-4.4,1.4-3.1,2.2-6.8,2.3-10.8.2-3.9-.2-8.1-.9-12.4l-.9-2.4c.7,5.8,1,11.3.5,16.2-.5,4.8-1.6,8.9-3.6,12.3,0,.2-.2.4-.3.6-.1.2-.2.4-.4.6-.3.4-.5.9-.8,1.3-.3.4-.6.8-.9,1.2-.3.3-.7.7-1,.9-6.3,4.7-15.8,6.8-25.3,6.4,4.6.3,9.2.1,13.5-.8h.4Z"/>
      </g>
      <g>
        <ellipse class="cls-1" cx="109.7" cy="134.5" rx="15.3" ry="16.4"/>
        <g>
          <path class="cls-1" d="M117.9,135.5c0-.1,0-.2,0-.2h-.3c0,0,.2.2.2.2Z"/>
          <path class="cls-1" d="M121,136.1h0c0,0-.1-.1-.2-.1,0,0,.1,0,.2.1Z"/>
          <path class="cls-1" d="M117.7,135.2c-1,0-1.9,0-2.9-.2,0,0,0-.2,0-.4-.5-.1-1,0-1.6,0,0,0,0-.2-.2-.2-.3,0-.6,0-.9,0-.2,0-.4,0-.5.1.7,0,1.3.2,1.9.3.6.1,1,.3,1.4.5.8.3,1.6.5,2.7-.2Z"/>
          <path class="cls-1" d="M119.6,136.6v-.8c-.5-.2-1-.3-1.7-.3.4.4.8.7,1.7,1.1Z"/>
          <path class="cls-1" d="M120.7,132c.2,0,.2,0,0,.2,0,0,0-.1,0-.2-.1,0-.4,0-.5,0,.4.5.8,1.2.9,1.9.3,0,.6.2.9.2-.2-1.8-.7-3.7-2.5-4.4.2.4.4.8.6,1.1.2.4.4.7.6,1.2Z"/>
          <path class="cls-1" d="M123.6,134.2v.2c.2-.2.2-.2,0-.2Z"/>
          <path class="cls-1" d="M102,129.3c-.3.8.1,1.8.6,2.6-.2-1.4.3-2.7.5-4.2-.4.5-.8,1-1.1,1.6Z"/>
          <path class="cls-1" d="M105,134.5c.4-.4-.1-.7-.7-1.3,0,.5.3.9.4,1.2,0,0,.2,0,.3,0Z"/>
          <path class="cls-1" d="M103.7,133.9c0-.5-.6-1.1-1.1-2,0,.8.4,1.5,1.1,2Z"/>
          <path class="cls-1" d="M123.9,109.1c1,.2,1.7.4,2.3.5.6.2,1,.4,1.3.6.5-.1,1-.2,1.8-.3,0,0-.2-.2-.3-.2-1.9-.9-3.8-1.7-5.7-2.3-.9,0-1.7-.1-2.5,0,1,.5,2,1.1,3,1.7Z"/>
          <path class="cls-1" d="M127.5,110.3c-1.9.5-1.4.8-.6.8.7,0,1.7-.2.6-.8Z"/>
          <path class="cls-1" d="M112.2,120.7s0,0-.1,0h-.4c.2,0,.4,0,.6,0Z"/>
          <path class="cls-1" d="M98.4,116.7c.4-.4.9-.8,1.4-1.2.5-.4,1-.8,1.5-1.1-2.1,1.3-4,3.1-4.9,5.1.2-.2.6-.2.8-.4,0-.4.2-.9.4-1.3.2-.4.5-.8.9-1.1Z"/>
          <path class="cls-1" d="M119.2,121.5c-2.3-1.1-4.9-1.4-7.1-.9-2-.4-4.1,0-5.9.9-1.7.9-3,2.5-3.6,4.2-.4,1.6-1.1,3.1-1.2,4.7-.1,1.6.4,3.1,2.2,3.9.1-.1.1-.2.1-.4.3.2.6.4,1,.5.4.8.8,1.3,1.3,1.7.5.4.9.6,1.4.9.2,0,.4-.6.5-.6.1,0,.2,0,.3,0,0,0,0-.1,0-.2.4-.3.6-1,0-1.7-.2-.2,0,0,0,0,0,0,.9.5,1.1.6,1.2.5,2.4.6,3,.2,0,0,.5.1.8.2,0-.1,0-.2,0-.2,1.5.4,2.3.9,3.1,1.4.8.4,1.5.7,2.7,0h0c0,.1.1.2.2.3h0s0,0,0,0c.3.5.8.9,1.5,1.5.1-.3.2-.6.2-.9.3.1.7.3,1.1.3h.2c0,.3,0,.4,0,.4.2.1.4.2.6.3.4.6.6,1.4.8,2,.2.6.4,1.1,1,1.2.6,0,.5-1,.4-2,.1,0,.2,0,.3,0-.1,1.3,1.7.6,1.7,1.4-.3,1-.5,2.1-1.1,3.1-1,2-2.3,3.7-3.7,5.2-1.4,1.5-3,3-4.9,4.3l-.5.3c-2,1.1-4.1,1.7-6.4,1.6.1-.2.3-.4.4-.5-.9,0-1.8-.1-2.6-.1-.4,0-.9,0-1.3,0-.4,0-.9,0-1.3,0-2.2,0-4.5-.3-6.7-1.2-2.2-.9-4.4-2.3-6.1-4.3-3.6-4.2-6-9.5-6.7-15.8.5,2.6,1.3,4.9,2.1,7.3.2,1.1.6,2.1,1,3.1-.3-1.1-.7-2.1-1-3.1-.5-2.1-.6-4.2-.9-6.3,0-1-.2-2-.4-3-.2-1-.5-2-.9-3,.3-.3.6-.2.6-.6.3-1.3.8-2.4,1.2-3.6.5-1.2.8-2.3,1-3.6-.2-.2.4-1.1-.2-1.1.5-1.1,1.3-2.1,2-3.2.8-1,1.6-2,2.3-3,.7-.8,1.2-1.9,1.8-3,3.3-3.1,7.4-5.4,12-6.6,4.6-1.2,9.7-1.2,14.8.2,2.5.7,5.2,2.3,7.2,3.9-3.6-1.7-7.4-2.8-11.3-3.2-3.5-1.2-7.3-1.4-10.1.2-.6.3-1.3.6-1.9.9,3.8-1.2,7.9-1.5,12-1.1,1,.4,2.1.7,3,1.2.5.2,1,.5,1.5.7.5.3,1,.5,1.4.8h-.1c-1.6-.5-3.3-.9-5-1.1-2.9-1.2-6.1-1.6-8.7-.6-.3.1-.6.3-.9.4-.6.2-1.2.6-1.8.9,2.3-.6,4.6-.9,7-1,.7,0,1.5,0,2.2,0,.7,0,1.5.2,2.2.2.9.3,1.7.8,2.5,1.2-.1,0-.2,0-.4,0-.4,0-1.5.4-2.2,1.1-.8.7-1.3,1.5-1,2.1,2.5.8,5.5,2.2,7.7,3.6,1.1.7,2,1.4,2.6,2,.6.6.9.9.9,1-.1.2-.7,0-1.4-.4-.8-.4-1.7-1-2.7-1.5-.5-.2-1-.5-1.4-.7-.5-.2-.9-.4-1.3-.5-.7-.3-1.2-.4-1.2-.3.4.3.7.7,1,1-.5,0-1-.1-1.4-.1-.9-.2-1.9-1-2.7-.7-1.3.3-2.4.3-3.5.2-.6,0-1.1,0-1.7,0-.6,0-1.2.2-1.7.4-.7.4-1.5.9-2.2,1.4-.7.6-1.4,1.2-2,1.9,0,.5-.6.5-.3.9-.6.1-1.2.5-1.8.8-.5.4-.8,1-.8,1.8h0c0,.1-.1.3-.2.4-1.7.8-2.1,2.9-2.3,4.6-.2.5-.5.9-.7,1.4.2-.3.6-.5.7-1,0-.1,0-.3,0-.4.6-1.2,1.2-2.6,2.1-3.9,0-.2,0-.5.2-.7,0,0,.2,0,.3-.1,0-.1,0-.2,0-.3,1-1.4,2.6-2.2,3.8-3.2.6-.3,1.3-.6,1.9-.7.7-.1,1.4-.1,2,0,.7,0,1.3.2,2,.4.6.2,1.3.4,1.9.7-.7,0-1.4,0-2.1,0-.7.1-1.3.2-1.9.4,1.5-.3,3.1-.4,4.6-.3.2,0,.4.2.6.3.4.2.8.4,1.2.7-.3-.3-.7-.6-1-.9.5,0,.9.1,1.4.2l1.4.3c2.4.9,4.6,2.7,6.2,4.9,1.6,2.2,2.5,5,2.6,7.7-.3,0-.7-.1-1-.2-.4-2.4-1.4-4.9-3.5-5.9.6,1.2,1.4,1.8,1.8,3.1-.1,0-.3.1-.5,0,.3.3.5.8.7,1.2.2.4.4.9.5,1.4-.7-.2-1.4-.4-2.1-.6-.6-.3-.7-.9-1.2-1.4-.6-1.2-1.3-2.3-2-3.3-.8-1-1.7-1.9-2.8-2.5-1.5-1.6-3.6-2.7-5.7-3.2,2.3-.2,4.6.1,7,.8ZM117.1,139.2c0,.2,0,.4.1.6,0,0,.1,0,.2,0,0-.1,0-.4-.3-.6ZM115,141.5c1-.3,1.3-1.7,1.4-2.9,0,0-.1,0-.2-.1-.6.7-.7,1.9-1.3,3ZM109.9,138.4h0c0,0,0,0,0,0h0ZM98,136c1.2,1.2,1.6,2.6,2.7,3.7.2.4,1.1.2,1.4.6.6.4,1.1.3,1.6.4,0-.2,0-.4,0-.6.2.4.6.4,1,.3.4,0,.7-.1.9.3,0-.2.4-.6.4-.6.5,0,.8.6,1.2.3.4-.1.9,0,1.2-.5,0,0,.2-.8.3-1,.1-.1.3-.2.4-.3,0,0,0-.1,0-.2-.1,0-.2,0-.3.2-.3.5-.8,1-1.3,1.1-1.1.2-2.6.4-4.2-.2-.3-.1-.9-.1-1.3-.3-.3-.1-.6-.3-.8-.5-.3-.2-.5-.5-.7-.7-.2-.3-.4-.5-.7-.7-.3-.2-.6-.4-1-.6-.2-.1-.3-.4-.7-.5ZM87.3,133.7c1,3.7,2.2,7.2,3.4,10.2.5,1.2,2.1,3.2,3.8,4.1.9.5,1.7.7,2.4.6.7-.1,1.2-.6,1.5-1.4-1.3.7-2.8.2-4.2-1.1-1.3-1.3-2.4-3.4-3-5.4-.6-2-.9-4-1.3-5.3-.2-.7-.5-1.2-.9-1.5-.4-.3-1-.4-1.7-.1ZM101.7,107.3c-.8.4-1.5.9-2.2,1.4-.7.5-1.5.9-2.3,1.4.7-.6,1.4-1,2.1-1.5.4-.2.7-.5,1.1-.7l1.2-.6ZM96.1,124.3c.2-2,1.1-3.7,2.3-5.3,1.2-1.6,2.7-2.8,4.4-4.1,1.3-.9,2.8-1.2,4.3-1.4.4,0,.7-.1,1.1-.2.4,0,.7-.1,1.1-.2.7-.2,1.5-.4,2.2-.8v-.8c.1,0-.2.2-.2.2-1.1-.3-2-.6-2.9-.8h.2c0,0-.3,0-.3,0-.6,0-1.3,0-2.1.3-.3.2-.7.4-1,.6-1.9.6-3.8,1.6-5.4,2.9-1.6,1.3-2.8,2.9-3.5,4.7-.9,2.1-.9,4.3-1.1,6.3.3-.4.8-.9.9-1.5Z"/>
          <path class="cls-1" d="M115.9,118.7c.5,0,1.1.2,1.6.3.5.1,1.1.3,1.6.5.9.3,1.8.5,2.6.9,2,1,3.7,2.8,4.9,5,1.2,2.2,1.9,4.6,2.5,7,.8,0,1.6,0,2.4-.3.1-3-.9-6-2.4-8.5-1.5-2.6-3.5-4.7-5.6-6.8h-.2c-1.5-.2-2.9-.9-4.4-1.5-1.5-.6-3.2-.9-4.8-.7-.8.2-1.5.4-2.3.6-.7.2-1.4.4-2.1.7-1.3.5-2.6,1.1-3.6,2.1,1.6-.4,3.3-.7,5-.6,1.7,0,3.4.5,4.8,1.4Z"/>
          <path class="cls-1" d="M104.3,133.2c0-.3,0-.6-.1-1-.1-1-.2-2.2.1-3.6-.5.6-.9,1.3-1.3,2-.2.8.6,1.9,1.3,2.6Z"/>
          <path class="cls-1" d="M104.7,127.4c-.1.4-.3.8-.3,1.2.8-.9,1.7-1.8,2.9-2.4,1.9-1.5,4.8-2.2,8-1.7.4,0,.7.2,1,.3-2-1.9-5-3-7.7-2.5-1.3.2-2.6.9-3.5,1.8-1,.9-1.6,2.1-1.8,3.3,0,0,0,.2,0,.3,1.1-1.4,2.6-2.6,4.4-3.3-1.3.8-2.3,1.8-2.8,3.1Z"/>
          <path class="cls-1" d="M114.8,118.6c.2,0,.4.2.6.3.3,0,.6,0,.8,0-.1,0-.3-.2-.4-.3h-1Z"/>
          <path class="cls-1" d="M108.3,111h-.1c-1,.3-2.1.5-3.1.8-.7.4-1.3.8-2,1.2l-1,.6-.9.7c2.3-1.4,4.9-2.3,7.1-3.4Z"/>
          <path class="cls-1" d="M97.2,107.7c-.4.2-1.1.6-1.5.8-.2.3-.3.5-.5.8.3-.2.7-.4,1-.5l.9-1.1Z"/>
          <path class="cls-1" d="M86,128.4c.5-6.8,3.7-13.4,8.7-18.1.2-.4.4-.7.5-1.1-4,2.3-7.2,6.2-8.1,10.6-.2.8,0,2.3-.4,3-1.3,3.5-1.3,7.3-.7,10.6-.2-1.6-.2-3.2,0-4.9h0Z"/>
        </g>
      </g>
      <path class="cls-1" d="M205.5,125.3c-.4,7.1-4.3,8.2-8.7,2.6-4.9,5.7-8.9,4.4-8.9-2.9-3.2,4.7-3.1,4.7,0,0-6.6,2.1-8.4-1-3.8-6.9-4.6,2-4.5,1.7,0-.8-4.4,1.4-4.2.9.5-1.2-4,.9-3.6.4,1-1.2-3.4.6-2.7.3,1.5-.7-3.8,3.5-3.5,5.4.6,4.3-2.4,3.6-1.2,4.6,2.6,2.2,0,4.4,2.9,5,6.5,1.4,3.1,3.6,5.9,2.9,6.2-1.6,4.8,1.6,6.2-.2,3-4.1,3.2.4,2.6-.8-1.3-2.7,1.7,2.4.2,3.7-3.2,3-.2,2.8-2.3,3.3-4.6,1.2-2.4,2.1-4.3,1.7-4.3-1-3,.8-3.8-.6-1.7-3.1-2.1-.6-1.9-1.6.6-2.3-1.4-1-.7-1.7,1.6-1.5-.5-1.2.5-1.5,2.2-.8.6-1.2,1.8-1.3,2.7-.3.4-1.1,3.8-1.1,2.5,0,2.4-1.1,3.5-.9,2.3.4,2.2-1.4,2.3-1.9.2-1.1,2.2-1.8,2.2-2.2.1-1,2.2-1.6,2.2-1.8,0-.1,2.2-3.4,1.6-5-1.3-3.6,1.7-2.9,1.8-2.9,0,0,1.5-3.2,1.2-3.5-.6-.6,1.2-3.4.9-3.7-.7-.6,1.3-3.3,1.3-2.8,0,.9,1.3-1.5.8-.3-1,2.7,0-1.2-1.3-.8-2.8,1-1.1-1.8-2.1-1.8-2.1-.1-1.7-1.9-2.6-2.4-2-1.1-1.7-2.2-1.9-2.5-.6-.5-2.1-2.7-2.5-3.2-.8-1-2.4-3.3-2.7-4-.8-1.5-2.6-4.1-2.8-5-.4-2-2.4-5.9-1.8-7.4,1.4-3.5-.7-6.4,1.3-7.1,4.3-1.4,2.5-5.7,5.4-4.2,6.5,3.3,5.2-1.3,6.9,2.2,3.7,7.9,3.2-1.8,3.2-1,0,.5,3.2-1.4,3.2-1.1,0,.5,3.2-1.2,3.2-.9,0,.6,3.2-.6,3.2,0,0,1.2,3.1-.2,3,.3-.2,1.2,4.9,1,6.3,2.5,3,3.4,5.1,2.5,5.5,4.2,1,3.7,4.5,6.2,2.6,9.6-4.2,7.5ZM196.5,101.3c1.1.2,1.4-.3.8-1,.6-.7.2-1.4-.8-1.5-.1-.9-.8-1.2-1.5-.6-1.9-.6-2.8.3-2,2-.8.7-.5,1.2.7,1,0,.8.8,1,1.5.4.8.6,1.5.5,1.5-.3ZM201.7,111.9c.2-.4-.4-.6-1.5-.3.3-.4-.3-.6-1.3-.3-3.4-.3-5.2.4-4,1.6-1.2.5-.9.9.6.7-.4.6.3.7,1.5.3,2.4.5,4.4-.4,4.6-1.9Z"/>
      <path class="cls-1" d="M225.6,134.9c3.3-1,2.7-.2-1.2,1.7,2.6-.6,1.8-.1-1.7,1.1,1.8-.5.9-.3-2,.5,3.9.5,5.5,1.9,3.5,3.2,4.4,2.1,5.2,4.2,1.7,4.8,3.8,5.1,2.9,7.4-1.9,5,1.5,5.2-.3,5.8-4.1,1.5.9,4.4.2,4.3-1.6-.3.4,4.1-.4,3.7-1.6-.8-.5,3.3-1.2,2.5-1.6-1.8-.7,4.7-1.7,5.7-2.1,2.2-2,4.7-3.3,5-3.1.7-4.1,4.4-5.9,3.7-4-1.6-4.6,2.4-5.3.5-1.5-4.3-3.8.3-3.3-1.2,1.1-3.4-2.8.6-2.2.2,1.4-.9-2.3.5-1.6.3,1.6-.3-.8.7.4,1,2.7.8-.5,1.6,0,2.8,1,2.5-1.1,3.1-1.5,4-1,2.2-2.3,3.3-3.4,3.6-2.4.8-2.3,2.8-2.5.9-.2-1.4-2.1,2.3-1.7,2,.8-.6-1.5,1.7-1.3,1.3.6-.8-2.3,1.1-2.9.7-1.5-.8-4.3,1.6-5.3,2.4-2.2,1.8-3.1,3.2-2.6,3.9,1.1,1.7-1.8,3.3-.8,3.5,2.2.6-.6,3,.7,2.5,2.9-1.1.4,1.6,1.5,0,2.7-3.5,1.5,5.5,3.3,7.5,4,4.5,3.2,3,4.6,2.5,3-1,3.4,1.7,3.9.7,1-2.3,2.8-.7,1.7-3-2.6-5.1-.7-1.9-3.4-2.8-5.9-2.1-.2-.7-4.7-.7-3.4,0-1.4-.7-1.4-5.7,0-3.7-1.4-2,11.5-2,9.5,0,2.7-2,3.4-2.4,1.5-.9,3.2-3.1,3.5-3.9.7-1.7,2.8-3.4,2.6-4.1-.4-1.5,2.3-4.2,1.6-5.1-1.5-1.9,2.1-4.1,2.7-5.2.5-.8,2.3-4.4,4.5-3.8,1.7.4,3.3-3.9,3.8-3.5,1,.9,3.6-3.5,4-2.9.8,1.2,3.8-2.9,4.1-2.3.6,1.3,3.9-2.4,4-1.9.2,1.3,3.8-1.6,3.6-.6-.4,2.1Z"/>
      <path class="cls-1" d="M226.9,181.2c6-5.6,5.3-6.5-1.5-2,4.2-6.7,1.5-7.6-6.1-2,1.1-5.6-1.1-4.9-5,1.6.3-3.6-1-1.7-2.8,4.1,1.1-3.6-28.4-3.6-21.8,0-6.6-3.6-6.6,3.7,0,5.4-6.6-1.7,5.5-1.7,8.9,0-2.9-1.7-2.7-1.5.6.4-3.2-1.1-3.5-.5-.5,1.3-3.8-.4-4.3,0-1.1.8-3.8-.8-14.5-.8-7.9,0-6.6-.8-6.6,6.4,0,5.3-6.6,1.1-1.9,1.1,3.5,0-7.4,2.6-8.3,5-2,5.2-6.1,3.4-6,3.9.1,1.3-5.9,4-5.7,4.7.4,1.5-5.6,4.6-5.2,5.3.9,1.5-5.1,5.1-4.4,5.7,1.4,1.3-4.4,5.4-3.8,5.8,1.4.9-4,5.5-3.5,5.8,1.2.6-3.6,5.7-3,5.8,1.3.4-3,5.7-2.2,5.7,1.8.1-1.3,5.6.3,5.4,3.6-.5-.4,5,1,4.2,2.9-1.8-.6,4.6-.2,4.2.7-.8,0,4.1.3,3.5.9-1.3.2,3.4.5,2.6.8-1.8.4,2.6.5,1.6.3-2.2.2,1.3,0,.1-.3-2.6-.2.9-.8,0-1.4-2.1-.4,1.1,3.4,1.1,2.8,0,.6,1.1.6-6.1,0-5.3.6-.8-10.1-.8-7.9,0-2.1-1-2.1-1.5,0-1-2.1-1.8-2.1-2.3,0-1.1-2.2-1.7-2.2-1.9,0-.4-2.2-1.7,9.1-1.7,8.3,0,.8-1.7.7-.2,0,1.1.8,1.7,1.2,3.9,1.1,5.1,1.1.5,1.1.4,0,0,2.4,2.9,4.4,4.1,4.4,2.7,5.2,1.4,7.2.6,4.3-1.8,5.6-.8,6.3-3.1,1.5-5,4.8-3.8,4-6.2-1.7-5.2,2.6-4.7.5-5.6-4.7-2.1,2.5-3.5,1.6-3.5-.6,0,3.4-5,5.4-5.7,4.4-1.6,5.5-4.4,7.3-4.1,3.9.6,7.1-3.1,8.7-1.7,3.6,2.9,7.1-4.8,7.1-6.6,0-3.8ZM202.1,197.5c2.2,0,2.7,1.2,1.1,2.8,1.6,1.5,1.1,3-1.1,3.1.2,2.2-1.5,2.8-3.6,1.3-1.8,1.4-3.2.9-3.1-1.2-2.3,0-2.9-1.2-1.3-2.7-1.6-1.6-1.1-3,1.1-3.2-.2-2.2,1.2-2.8,3.2-1.3,2.3-1.5,4-1,3.8,1.1ZM217.5,187.8c1.3-.7,2.4-.5,2.4.4,1.5-.2,1.8.5.8,1.5,1,.9.6,1.6-.9,1.5-.1,1-1.2,1.3-2.2.6-2.5.7-3.7-.7-2.7-3.1-1-.4-1-1.7,0-.9-1-.7,2.6-.7,2.7,0Z"/>
    </g>
  </g>
</svg>